<svg xmlns="http://www.w3.org/2000/svg" xmlns:xlink="http://www.w3.org/1999/xlink" width="500" zoomAndPan="magnify" viewBox="0 0 375 374.999991" height="500" preserveAspectRatio="xMidYMid meet" version="1.0"><path fill="#050419" d="M 359.742188 167.78125 C 359.8125 167.78125 359.8125 167.78125 359.742188 167.78125 C 356.640625 140.488281 347.128906 115.125 332.792969 93.207031 L 331.484375 94.722656 C 331.828125 94.308594 332.308594 93.757812 332.792969 93.136719 C 301.570312 45.648438 247.464844 14.496094 186.191406 15.320312 C 130.773438 16.078125 81.355469 43.511719 50.269531 85.347656 C 30.007812 112.644531 17.53125 145.933594 16.359375 182.050781 C 13.808594 263.726562 68.121094 333.132812 142.628906 353.742188 C 159.101562 358.289062 176.472656 360.496094 194.53125 359.875 C 283.71875 356.910156 356.640625 284.886719 360.707031 195.765625 C 361.1875 186.183594 360.84375 176.878906 359.742188 167.78125 Z M 297.710938 229.261719 C 295.917969 230.984375 294.125 232.640625 292.265625 234.226562 C 282.339844 238.292969 269.863281 238.015625 262.765625 228.917969 C 260.421875 226.300781 259.113281 222.851562 259.113281 219.269531 L 259.113281 189.976562 C 259.113281 179.777344 250.839844 171.503906 240.640625 171.503906 L 239.539062 171.503906 C 229.335938 171.503906 221.066406 179.707031 221.066406 189.976562 C 221.066406 208.863281 220.996094 235.398438 220.929688 235.398438 C 219.6875 248.355469 208.660156 258.488281 195.355469 258.210938 C 181.433594 257.9375 170.613281 245.941406 170.613281 232.019531 L 170.613281 189.976562 C 170.613281 179.777344 162.34375 171.503906 152.140625 171.503906 C 141.941406 171.503906 133.671875 179.777344 133.671875 189.976562 C 133.671875 189.976562 133.601562 248.285156 133.601562 263.242188 C 133.601562 266.828125 132.636719 270.34375 130.636719 273.304688 C 123.675781 283.507812 108.097656 286.195312 97.277344 279.714844 C 91.417969 274.683594 89.074219 268.207031 88.25 261.242188 C 88.25 260.96875 88.179688 260.691406 88.179688 260.484375 C 87.421875 253.386719 88.109375 245.941406 88.042969 238.980469 C 88.316406 222.371094 87.699219 205.828125 88.179688 189.21875 C 88.386719 181.84375 89.765625 174.605469 92.589844 167.78125 C 93.003906 166.816406 93.347656 165.921875 93.761719 165.027344 C 97.003906 157.859375 101.480469 151.101562 107.203125 145.65625 C 122.847656 130.90625 145.316406 122.980469 166.617188 127.945312 C 176.472656 129.597656 184.8125 135.25 193.21875 140.210938 C 196.527344 142.832031 199.628906 138.835938 202.59375 137.59375 C 203.144531 137.25 204.179688 136.628906 204.730469 136.285156 C 219.273438 126.152344 236.917969 124.566406 253.460938 128.703125 C 273.242188 133.664062 289.921875 147.519531 298.125 166.199219 C 301.292969 173.433594 303.15625 181.222656 303.429688 189.285156 C 303.292969 202.726562 306.257812 217.753906 297.710938 229.261719 Z M 297.710938 229.261719 " fill-opacity="1" fill-rule="nonzero"/></svg>